# xmcd
#
# Track frame offsets:
#	150
#	15560
#	30970
#
# Disc length: 614 seconds
# Revision: 1
# Processed by: cddbd v1.5.2PL0 Copyright (c) Steve Scherf et al.
# Submitted via: dBpowerAMP V12.0
#
DISCID=12026403
DTITLE=Darryl Worley - I Miss My Friend
DYEAR=2002
DGENRE=Pop/Rock
TTITLE0=Family Tree
TTITLE1=Party Like a Rock Star
TTITLE2=Party Like a Rock Star
EXTD=
EXTT0=
EXTT1=
EXTT2=
PLAYORDER=
